<svg width="29" height="73" viewBox="0 0 29 73" fill="none" xmlns="http://www.w3.org/2000/svg">
<path d="M19.1867 1.04785H27.4867V71.0479H19.0867V15.9479C15.7534 20.2812 10.4201 22.4479 3.08672 22.4479H1.88672V14.9478H3.08672C8.35339 14.9478 12.3534 13.8478 15.0867 11.6479C17.8201 9.44785 19.1867 6.24785 19.1867 2.04785V1.04785Z" fill="#1176AA"/>
<path fill-rule="evenodd" clip-rule="evenodd" d="M18.1867 0.0478516H28.4867V72.0479H18.0867V18.5274C14.5135 21.8466 9.4633 23.4479 3.08672 23.4479H0.886719V13.9478H3.08672C8.23482 13.9478 11.9739 12.8696 14.4597 10.8688C16.91 8.89664 18.1867 6.01136 18.1867 2.04785V0.0478516ZM18.0867 17.1198C18.438 16.7486 18.7713 16.3579 19.0867 15.9479V71.0479H27.4867V1.04785H19.1867V2.04785C19.1867 6.24785 17.8201 9.44785 15.0867 11.6479C12.3534 13.8479 8.35339 14.9478 3.08672 14.9478H1.88672V22.4479H3.08672C9.72612 22.4479 14.7261 20.6718 18.0867 17.1198Z" fill="#111111"/>
</svg>
