<svg width="28" height="73" viewBox="0 0 28 73" fill="none" xmlns="http://www.w3.org/2000/svg">
<path fill-rule="evenodd" clip-rule="evenodd" d="M17.5061 0.216797H27.8061V72.2168H17.4061V18.6963C13.8328 22.0156 8.78263 23.6168 2.40605 23.6168H0.206055V14.1168H2.40605C7.55416 14.1168 11.2932 13.0386 13.779 11.0378C16.2294 9.06559 17.5061 6.18031 17.5061 2.21679V0.216797ZM17.4061 17.2888C17.7573 16.9175 18.0906 16.5269 18.4061 16.1168V71.2168H26.8061V1.2168H18.5061V2.2168C18.5061 6.4168 17.1394 9.6168 14.4061 11.8168C11.6727 14.0168 7.67272 15.1168 2.40605 15.1168H1.20605V22.6168H2.40605C9.04545 22.6168 14.0455 20.8408 17.4061 17.2888Z" fill="#111111"/>
</svg>
