<svg width="219" height="219" viewBox="0 0 219 219" fill="none" xmlns="http://www.w3.org/2000/svg">
<path d="M109.895 207.697C104.837 155.626 63.4424 114.217 11.4369 109.25C63.5761 104.269 105.051 62.6595 109.933 10.3997C114.991 62.4704 156.386 103.878 208.391 108.846C156.251 113.826 114.777 155.437 109.895 207.697Z" fill="white" stroke="black"/>
<path d="M107.639 82.9824H113.82V135.114H107.564V94.079C105.082 97.3062 101.11 98.9198 95.6486 98.9198H94.7549V93.3343H95.6486C99.5709 93.3343 102.55 92.5151 104.585 90.8766C106.621 89.2382 107.639 86.8551 107.639 83.7272V82.9824Z" fill="#111111"/>
<path fill-rule="evenodd" clip-rule="evenodd" d="M106.894 82.2373H114.565V135.858H106.819V95.9997C104.158 98.4717 100.397 99.6642 95.6482 99.6642H94.0098V92.5892H95.6482C99.4822 92.5892 102.267 91.7862 104.118 90.2961C105.943 88.8273 106.894 86.6786 106.894 83.7268V82.2373ZM106.819 94.9514C107.081 94.6749 107.329 94.384 107.564 94.0786V135.114H113.82V82.982H107.638V83.7268C107.638 86.8547 106.621 89.2378 104.585 90.8763C102.549 92.5147 99.5705 93.3339 95.6482 93.3339H94.7545V98.9194H95.6482C100.593 98.9194 104.316 97.5968 106.819 94.9514Z" fill="#111111"/>
</svg>
