<svg width="51" height="74" viewBox="0 0 51 74" fill="none" xmlns="http://www.w3.org/2000/svg">
<path d="M45.8943 33.7963L45.8971 33.7926C48.4985 30.2327 49.7934 26.0606 49.7934 21.2976C49.7934 15.3613 47.6369 10.4893 43.3255 6.72375C39.087 2.89693 33.6959 0.997559 27.1934 0.997559C20.0305 0.997559 14.0452 2.95955 9.27435 6.91254C4.49838 10.8698 1.64593 16.3232 0.698004 23.2296L0.620044 23.7976H1.19336H9.89336H10.3223L10.3875 23.3736C11.0376 19.1481 12.8496 15.8301 15.8118 13.383C18.7726 10.9372 22.5532 9.69756 27.1934 9.69756C30.8859 9.69756 33.9293 10.7954 36.36 12.9702L36.3599 12.9702L36.3648 12.9744C38.8529 15.1435 40.0934 17.9047 40.0934 21.2976C40.0934 23.8022 39.4206 26.1091 38.0715 28.2291L38.0694 28.2326C36.7715 30.3091 35.0483 32.1648 32.8927 33.7981C30.778 35.384 28.3955 36.9395 25.7441 38.4641L25.7441 38.4641L25.7394 38.4669C23.1324 40.0043 20.5259 41.6417 17.9197 43.3791C15.2988 45.0595 12.8778 46.9087 10.6576 48.9271C8.47233 50.9075 6.66895 53.3605 5.24408 56.2781L5.24399 56.2781L5.24 56.2867C3.87308 59.2256 3.19336 62.4652 3.19336 65.9976V72.5976V73.0976H3.69336H48.2934H48.7934V72.5976V64.8976V64.3976H48.2934H13.1013C13.2094 60.9982 14.4268 58.0163 16.7641 55.433L16.7642 55.433L16.768 55.4287C19.261 52.6076 22.2481 50.2432 25.7334 48.3362L25.7362 48.3346C29.3382 46.3335 32.9403 44.299 36.5423 42.2312L36.5423 42.2312L36.5483 42.2277C40.2059 40.0602 43.322 37.2486 45.8943 33.7963Z" fill="white" stroke="black"/>
</svg>
