<svg width="219" height="219" viewBox="0 0 219 219" fill="none" xmlns="http://www.w3.org/2000/svg">
<path d="M109.441 207.678C104.383 155.607 62.9883 114.199 10.9828 109.231C63.122 104.251 104.596 62.6409 109.479 10.3812C114.536 62.4519 155.932 103.86 207.937 108.827C155.797 113.808 114.323 155.418 109.441 207.678Z" fill="white" stroke="black"/>
<mask id="path-2-outside-1_52_281" maskUnits="userSpaceOnUse" x="88.3789" y="82.0957" width="38" height="54" fill="black">
<rect fill="white" x="88.3789" y="82.0957" width="38" height="54"/>
<path d="M125.266 97.6467C125.266 101.053 124.341 104.022 122.492 106.553C120.643 109.035 118.404 111.054 115.776 112.612C113.148 114.12 110.52 115.605 107.892 117.065C105.313 118.476 103.098 120.228 101.249 122.321C99.3996 124.365 98.4749 126.749 98.4749 129.475H124.536V135.096H91.9779V130.278C91.9779 127.747 92.4646 125.435 93.4379 123.343C94.4599 121.25 95.7496 119.498 97.3069 118.087C98.9129 116.627 100.665 115.288 102.563 114.072C104.461 112.806 106.359 111.614 108.257 110.495C110.204 109.375 111.956 108.232 113.513 107.064C115.119 105.847 116.409 104.46 117.382 102.903C118.404 101.297 118.915 99.5447 118.915 97.6467C118.915 95.0674 117.966 92.9504 116.068 91.2957C114.219 89.641 111.907 88.8137 109.133 88.8137C105.678 88.8137 102.831 89.7384 100.592 91.5877C98.3532 93.437 96.9906 95.9434 96.5039 99.1067H90.1529C90.8342 94.1427 92.8782 90.2494 96.2849 87.4267C99.6916 84.604 103.974 83.1927 109.133 83.1927C113.805 83.1927 117.65 84.5554 120.667 87.2807C123.733 89.9574 125.266 93.4127 125.266 97.6467Z"/>
</mask>
<path d="M125.266 97.6467C125.266 101.053 124.341 104.022 122.492 106.553C120.643 109.035 118.404 111.054 115.776 112.612C113.148 114.12 110.52 115.605 107.892 117.065C105.313 118.476 103.098 120.228 101.249 122.321C99.3996 124.365 98.4749 126.749 98.4749 129.475H124.536V135.096H91.9779V130.278C91.9779 127.747 92.4646 125.435 93.4379 123.343C94.4599 121.25 95.7496 119.498 97.3069 118.087C98.9129 116.627 100.665 115.288 102.563 114.072C104.461 112.806 106.359 111.614 108.257 110.495C110.204 109.375 111.956 108.232 113.513 107.064C115.119 105.847 116.409 104.46 117.382 102.903C118.404 101.297 118.915 99.5447 118.915 97.6467C118.915 95.0674 117.966 92.9504 116.068 91.2957C114.219 89.641 111.907 88.8137 109.133 88.8137C105.678 88.8137 102.831 89.7384 100.592 91.5877C98.3532 93.437 96.9906 95.9434 96.5039 99.1067H90.1529C90.8342 94.1427 92.8782 90.2494 96.2849 87.4267C99.6916 84.604 103.974 83.1927 109.133 83.1927C113.805 83.1927 117.65 84.5554 120.667 87.2807C123.733 89.9574 125.266 93.4127 125.266 97.6467Z" fill="#111111"/>
<path d="M122.492 106.553L123.294 107.15L123.299 107.143L122.492 106.553ZM115.776 112.612L116.274 113.479L116.286 113.472L115.776 112.612ZM107.892 117.065L108.372 117.942L108.378 117.939L107.892 117.065ZM101.249 122.321L101.99 122.992L101.998 122.983L101.249 122.321ZM98.4749 129.475H97.4749V130.475H98.4749V129.475ZM124.536 129.475H125.536V128.475H124.536V129.475ZM124.536 135.096V136.096H125.536V135.096H124.536ZM91.9779 135.096H90.9779V136.096H91.9779V135.096ZM93.4379 123.343L92.5393 122.904L92.5352 122.912L92.5312 122.921L93.4379 123.343ZM97.3069 118.087L97.9784 118.828L97.9796 118.827L97.3069 118.087ZM102.563 114.072L103.103 114.914L103.11 114.909L103.118 114.904L102.563 114.072ZM108.257 110.495L107.758 109.628L107.749 109.633L108.257 110.495ZM113.513 107.064L114.113 107.864L114.117 107.861L113.513 107.064ZM117.382 102.903L116.538 102.366L116.534 102.373L117.382 102.903ZM116.068 91.2957L115.401 92.041L115.411 92.0495L116.068 91.2957ZM96.5039 99.1067V100.107H97.3618L97.4923 99.2588L96.5039 99.1067ZM90.1529 99.1067L89.1622 98.9707L89.0063 100.107H90.1529V99.1067ZM96.2849 87.4267L95.6469 86.6567L95.6469 86.6567L96.2849 87.4267ZM120.667 87.2807L119.997 88.0228L120.003 88.0285L120.009 88.034L120.667 87.2807ZM124.266 97.6467C124.266 100.861 123.398 103.618 121.685 105.963L123.299 107.143C125.285 104.426 126.266 101.246 126.266 97.6467H124.266ZM121.69 105.955C119.919 108.333 117.779 110.262 115.266 111.751L116.286 113.472C119.029 111.846 121.367 109.737 123.294 107.15L121.69 105.955ZM115.278 111.744C112.654 113.251 110.03 114.733 107.406 116.191L108.378 117.939C111.01 116.477 113.642 114.99 116.274 113.479L115.278 111.744ZM107.412 116.187C104.736 117.651 102.43 119.475 100.5 121.659L101.998 122.983C103.767 120.981 105.889 119.301 108.372 117.942L107.412 116.187ZM100.507 121.65C98.4938 123.875 97.4749 126.498 97.4749 129.475H99.4749C99.4749 127 100.305 124.854 101.99 122.992L100.507 121.65ZM98.4749 130.475H124.536V128.475H98.4749V130.475ZM123.536 129.475V135.096H125.536V129.475H123.536ZM124.536 134.096H91.9779V136.096H124.536V134.096ZM92.9779 135.096V130.278H90.9779V135.096H92.9779ZM92.9779 130.278C92.9779 127.879 93.4385 125.713 94.3446 123.764L92.5312 122.921C91.4907 125.158 90.9779 127.616 90.9779 130.278H92.9779ZM94.3365 123.782C95.3087 121.791 96.525 120.145 97.9784 118.828L96.6354 117.346C94.9742 118.851 93.6111 120.709 92.5393 122.904L94.3365 123.782ZM97.9796 118.827C99.5426 117.406 101.25 116.101 103.103 114.914L102.023 113.23C100.08 114.476 98.2832 115.848 96.6342 117.347L97.9796 118.827ZM103.118 114.904C105.001 113.648 106.883 112.466 108.765 111.356L107.749 109.633C105.835 110.762 103.921 111.964 102.008 113.24L103.118 114.904ZM108.755 111.362C110.732 110.225 112.519 109.059 114.113 107.864L112.913 106.264C111.393 107.404 109.675 108.526 107.758 109.628L108.755 111.362ZM114.117 107.861C115.81 106.578 117.186 105.103 118.23 103.433L116.534 102.373C115.631 103.817 114.428 105.116 112.909 106.267L114.117 107.861ZM118.226 103.44C119.349 101.674 119.915 99.7355 119.915 97.6467H117.915C117.915 99.3539 117.458 100.92 116.538 102.366L118.226 103.44ZM119.915 97.6467C119.915 94.7864 118.847 92.3917 116.725 90.5419L115.411 92.0495C117.085 93.509 117.915 95.3483 117.915 97.6467H119.915ZM116.735 90.5505C114.68 88.7121 112.122 87.8137 109.133 87.8137V89.8137C111.692 89.8137 113.757 90.57 115.401 92.0409L116.735 90.5505ZM109.133 87.8137C105.491 87.8137 102.405 88.7924 99.955 90.8167L101.229 92.3587C103.256 90.6843 105.864 89.8137 109.133 89.8137V87.8137ZM99.955 90.8167C97.5074 92.8387 96.0354 95.5756 95.5155 98.9546L97.4923 99.2588C97.9458 96.3111 99.1991 94.0354 101.229 92.3587L99.955 90.8167ZM96.5039 98.1067H90.1529V100.107H96.5039V98.1067ZM91.1436 99.2427C91.7958 94.4914 93.7349 90.8383 96.9229 88.1967L95.6469 86.6567C92.0216 89.6605 89.8727 93.794 89.1622 98.9707L91.1436 99.2427ZM96.9229 88.1967C100.121 85.5467 104.167 84.1927 109.133 84.1927V82.1927C103.782 82.1927 99.2619 83.6614 95.6469 86.6567L96.9229 88.1967ZM109.133 84.1927C113.597 84.1927 117.19 85.4881 119.997 88.0228L121.337 86.5386C118.109 83.6226 114.013 82.1927 109.133 82.1927V84.1927ZM120.009 88.034C122.848 90.5122 124.266 93.6882 124.266 97.6467H126.266C126.266 93.1372 124.618 89.4025 121.325 86.5274L120.009 88.034Z" fill="black" mask="url(#path-2-outside-1_52_281)"/>
</svg>
