<svg width="55" height="75" viewBox="0 0 55 75" fill="none" xmlns="http://www.w3.org/2000/svg">
<path d="M49.9826 42.275C47.634 39.4937 44.3833 37.4528 40.2606 36.1339C43.4805 34.785 46.0646 32.8782 47.9947 30.4052L47.9948 30.4052L47.9983 30.4006C50.2009 27.5097 51.3006 24.1688 51.3006 20.3976C51.3006 14.6569 49.1739 9.98143 44.9236 6.41586C40.6816 2.79056 35.1922 0.997559 28.5006 0.997559C21.5317 0.997559 15.6465 2.99637 10.8784 7.01525L10.8783 7.01524L10.8756 7.01754C6.17093 11.0404 3.38547 16.4584 2.50476 23.2331L2.43138 23.7976H3.00059H11.7006H12.1295L12.1948 23.3736C12.8452 19.1457 14.6255 15.8274 17.5211 13.3814C20.4867 10.9323 24.136 9.69756 28.5006 9.69756C32.4693 9.69756 35.6789 10.801 38.172 12.9744C40.6649 15.1477 41.9006 17.8444 41.9006 21.0976C41.9006 24.5587 40.6592 27.3147 38.1805 29.4134C35.687 31.4581 32.4051 32.5657 28.2926 32.6976H18.9006H18.4006V33.1976V40.0976V40.5976H18.9006H28.3006C33.5019 40.5976 37.4792 41.7175 40.2949 43.8932L40.2948 43.8933L40.3049 43.9008C43.1732 46.0042 44.6006 48.8528 44.6006 52.4976C44.6006 56.4269 43.1915 59.5496 40.3788 61.9149C37.5553 64.2892 33.8448 65.4976 29.2006 65.4976C23.5506 65.4976 19.0733 64.1194 15.7188 61.4119C12.4339 58.6404 10.6241 54.9383 10.2994 50.2629L10.2671 49.7976H9.80059H1.10059H0.567129L0.601633 50.3299C1.0761 57.6503 3.863 63.483 8.97898 67.7804L8.98149 67.7825C14.1582 72.0737 20.9136 74.1976 29.2006 74.1976C36.4233 74.1976 42.345 72.3058 46.9204 68.4819C51.5691 64.6527 53.9006 59.6777 53.9006 53.5976C53.9006 49.1592 52.6002 45.3747 49.9826 42.275Z" fill="white" stroke="black"/>
</svg>
