<svg width="219" height="219" viewBox="0 0 219 219" fill="none" xmlns="http://www.w3.org/2000/svg">
<path d="M109.66 207.678C104.602 155.607 63.207 114.199 11.2015 109.231C63.3408 104.251 104.815 62.6409 109.698 10.3812C114.755 62.4519 156.151 103.86 208.156 108.827C156.016 113.808 114.542 155.418 109.66 207.678Z" fill="white" stroke="black"/>
<mask id="path-2-outside-1_52_285" maskUnits="userSpaceOnUse" x="88.5977" y="82.0957" width="42" height="55" fill="black">
<rect fill="white" x="88.5977" y="82.0957" width="42" height="55"/>
<path d="M117.966 108.524C121.421 109.448 124.073 111.006 125.923 113.196C127.772 115.386 128.697 118.062 128.697 121.226C128.697 125.557 127.042 129.085 123.733 131.811C120.472 134.536 116.238 135.899 111.031 135.899C105.045 135.899 100.202 134.366 96.5037 131.3C92.8537 128.234 90.8583 124.073 90.5177 118.817H96.8687C97.112 122.321 98.4747 125.119 100.957 127.212C103.487 129.256 106.845 130.278 111.031 130.278C114.486 130.278 117.284 129.377 119.426 127.577C121.567 125.776 122.638 123.391 122.638 120.423C122.638 117.649 121.543 115.459 119.353 113.853C117.211 112.198 114.218 111.371 110.374 111.371H103.512V106.334H110.374C113.44 106.236 115.922 105.409 117.82 103.852C119.718 102.246 120.667 100.129 120.667 97.5007C120.667 95.0187 119.718 92.9504 117.82 91.2957C115.922 89.641 113.488 88.8137 110.52 88.8137C107.259 88.8137 104.509 89.7384 102.271 91.5877C100.081 93.437 98.7423 95.9434 98.2557 99.1067H91.9047C92.5373 94.24 94.5327 90.371 97.8907 87.4997C101.297 84.6284 105.507 83.1927 110.52 83.1927C115.338 83.1927 119.255 84.4824 122.273 87.0617C125.29 89.5924 126.799 92.9017 126.799 96.9897C126.799 99.6664 126.02 102.027 124.463 104.071C122.905 106.066 120.74 107.55 117.966 108.524Z"/>
</mask>
<path d="M117.966 108.524C121.421 109.448 124.073 111.006 125.923 113.196C127.772 115.386 128.697 118.062 128.697 121.226C128.697 125.557 127.042 129.085 123.733 131.811C120.472 134.536 116.238 135.899 111.031 135.899C105.045 135.899 100.202 134.366 96.5037 131.3C92.8537 128.234 90.8583 124.073 90.5177 118.817H96.8687C97.112 122.321 98.4747 125.119 100.957 127.212C103.487 129.256 106.845 130.278 111.031 130.278C114.486 130.278 117.284 129.377 119.426 127.577C121.567 125.776 122.638 123.391 122.638 120.423C122.638 117.649 121.543 115.459 119.353 113.853C117.211 112.198 114.218 111.371 110.374 111.371H103.512V106.334H110.374C113.44 106.236 115.922 105.409 117.82 103.852C119.718 102.246 120.667 100.129 120.667 97.5007C120.667 95.0187 119.718 92.9504 117.82 91.2957C115.922 89.641 113.488 88.8137 110.52 88.8137C107.259 88.8137 104.509 89.7384 102.271 91.5877C100.081 93.437 98.7423 95.9434 98.2557 99.1067H91.9047C92.5373 94.24 94.5327 90.371 97.8907 87.4997C101.297 84.6284 105.507 83.1927 110.52 83.1927C115.338 83.1927 119.255 84.4824 122.273 87.0617C125.29 89.5924 126.799 92.9017 126.799 96.9897C126.799 99.6664 126.02 102.027 124.463 104.071C122.905 106.066 120.74 107.55 117.966 108.524Z" fill="#111111"/>
<path d="M117.966 108.524L117.635 107.58L114.578 108.652L117.707 109.49L117.966 108.524ZM125.923 113.196L126.687 112.551L126.687 112.551L125.923 113.196ZM123.733 131.811L123.097 131.039L123.091 131.043L123.733 131.811ZM96.5037 131.3L95.8605 132.065L95.8655 132.07L96.5037 131.3ZM90.5177 118.817V117.817H89.4507L89.5198 118.881L90.5177 118.817ZM96.8687 118.817L97.8663 118.747L97.8016 117.817H96.8687V118.817ZM100.957 127.212L100.312 127.976L100.32 127.983L100.328 127.99L100.957 127.212ZM119.426 127.577L118.782 126.811L118.782 126.811L119.426 127.577ZM119.353 113.853L118.741 114.644L118.751 114.652L118.761 114.659L119.353 113.853ZM103.512 111.371H102.512V112.371H103.512V111.371ZM103.512 106.334V105.334H102.512V106.334H103.512ZM110.374 106.334V107.334H110.39L110.405 107.333L110.374 106.334ZM117.82 103.852L118.454 104.625L118.46 104.62L118.466 104.615L117.82 103.852ZM117.82 91.2957L118.477 90.5419L118.477 90.5419L117.82 91.2957ZM102.271 91.5877L101.634 90.8167L101.625 90.8237L102.271 91.5877ZM98.2557 99.1067V100.107H99.1136L99.244 99.2588L98.2557 99.1067ZM91.9047 99.1067L90.913 98.9778L90.7662 100.107H91.9047V99.1067ZM97.8907 87.4997L97.2462 86.7351L97.2408 86.7397L97.8907 87.4997ZM122.273 87.0617L121.623 87.8219L121.63 87.8279L122.273 87.0617ZM124.463 104.071L125.251 104.686L125.258 104.677L124.463 104.071ZM117.707 109.49C121.014 110.375 123.471 111.842 125.159 113.841L126.687 112.551C124.676 110.17 121.828 108.522 118.224 107.558L117.707 109.49ZM125.159 113.841C126.839 115.831 127.697 118.272 127.697 121.226H129.697C129.697 117.852 128.704 114.94 126.687 112.551L125.159 113.841ZM127.697 121.226C127.697 125.262 126.173 128.506 123.097 131.039L124.368 132.583C127.911 129.665 129.697 125.852 129.697 121.226H127.697ZM123.091 131.043C120.049 133.587 116.058 134.899 111.031 134.899V136.899C116.418 136.899 120.895 135.485 124.374 132.578L123.091 131.043ZM111.031 134.899C105.219 134.899 100.62 133.413 97.1418 130.53L95.8655 132.07C99.7843 135.318 104.871 136.899 111.031 136.899V134.899ZM97.1468 130.534C93.7288 127.663 91.8406 123.767 91.5156 118.752L89.5198 118.881C89.876 124.378 91.9785 128.805 95.8605 132.065L97.1468 130.534ZM90.5177 119.817H96.8687V117.817H90.5177V119.817ZM95.8711 118.886C96.1314 122.635 97.6051 125.694 100.312 127.976L101.601 126.447C99.3442 124.544 98.0925 122.006 97.8663 118.747L95.8711 118.886ZM100.328 127.99C103.083 130.214 106.683 131.278 111.031 131.278V129.278C107.008 129.278 103.892 128.297 101.585 126.434L100.328 127.99ZM111.031 131.278C114.664 131.278 117.708 130.327 120.069 128.342L118.782 126.811C116.86 128.427 114.308 129.278 111.031 129.278V131.278ZM120.069 128.342C122.452 126.339 123.638 123.666 123.638 120.423H121.638C121.638 123.117 120.682 125.214 118.782 126.811L120.069 128.342ZM123.638 120.423C123.638 117.338 122.397 114.845 119.944 113.046L118.761 114.659C120.688 116.072 121.638 117.959 121.638 120.423H123.638ZM119.964 113.061C117.587 111.225 114.349 110.371 110.374 110.371V112.371C114.088 112.371 116.835 113.171 118.741 114.644L119.964 113.061ZM110.374 110.371H103.512V112.371H110.374V110.371ZM104.512 111.371V106.334H102.512V111.371H104.512ZM103.512 107.334H110.374V105.334H103.512V107.334ZM110.405 107.333C113.636 107.231 116.347 106.354 118.454 104.625L117.185 103.079C115.496 104.464 113.244 105.242 110.342 105.334L110.405 107.333ZM118.466 104.615C120.602 102.807 121.667 100.404 121.667 97.5007H119.667C119.667 99.8537 118.833 101.684 117.174 103.088L118.466 104.615ZM121.667 97.5007C121.667 94.7249 120.589 92.3833 118.477 90.5419L117.163 92.0495C118.846 93.5174 119.667 95.3125 119.667 97.5007H121.667ZM118.477 90.5419C116.365 88.7009 113.684 87.8137 110.52 87.8137V89.8137C113.292 89.8137 115.478 90.5812 117.163 92.0495L118.477 90.5419ZM110.52 87.8137C107.057 87.8137 104.074 88.8011 101.634 90.8167L102.908 92.3587C104.945 90.6756 107.461 89.8137 110.52 89.8137V87.8137ZM101.625 90.8237C99.2291 92.8473 97.7861 95.5824 97.2673 98.9546L99.244 99.2588C99.6986 96.3043 100.932 94.0268 102.916 92.3517L101.625 90.8237ZM98.2557 98.1067H91.9047V100.107H98.2557V98.1067ZM92.8963 99.2356C93.5009 94.585 95.392 90.952 98.5405 88.2597L97.2408 86.7397C93.6734 89.7901 91.5738 93.895 90.913 98.9778L92.8963 99.2356ZM98.5351 88.2643C101.739 85.5641 105.711 84.1927 110.52 84.1927V82.1927C105.303 82.1927 100.856 83.6927 97.2462 86.7351L98.5351 88.2643ZM110.52 84.1927C115.152 84.1927 118.823 85.4286 121.623 87.8218L122.922 86.3016C119.687 83.5361 115.523 82.1927 110.52 82.1927V84.1927ZM121.63 87.8279C124.411 90.1604 125.799 93.1844 125.799 96.9897H127.799C127.799 92.619 126.169 89.0243 122.915 86.2955L121.63 87.8279ZM125.799 96.9897C125.799 99.4572 125.086 101.602 123.667 103.465L125.258 104.677C126.954 102.451 127.799 99.8755 127.799 96.9897H125.799ZM123.674 103.455C122.253 105.277 120.258 106.66 117.635 107.58L118.297 109.467C121.222 108.441 123.558 106.855 125.251 104.686L123.674 103.455Z" fill="black" mask="url(#path-2-outside-1_52_285)"/>
</svg>
