<svg width="219" height="219" viewBox="0 0 219 219" fill="none" xmlns="http://www.w3.org/2000/svg">
<path d="M109.316 207.822C104.258 155.751 62.8633 114.342 10.8578 109.375C62.997 104.394 104.471 62.7845 109.354 10.5247C114.411 62.5954 155.807 104.003 207.812 108.971C155.672 113.951 114.198 155.562 109.316 207.822Z" fill="white" stroke="black"/>
<mask id="path-2-outside-1_52_286" maskUnits="userSpaceOnUse" x="88.2539" y="82.2393" width="42" height="54" fill="black">
<rect fill="white" x="88.2539" y="82.2393" width="42" height="54"/>
<path d="M128.426 116.989V122.245H121.126V135.239H115.067V122.245H89.7359V116.989L114.994 84.1393L115.067 84.2123V84.1393H121.126V116.989H128.426ZM96.3059 116.989H115.067V92.5343L96.3059 116.989Z"/>
</mask>
<path d="M128.426 116.989V122.245H121.126V135.239H115.067V122.245H89.7359V116.989L114.994 84.1393L115.067 84.2123V84.1393H121.126V116.989H128.426ZM96.3059 116.989H115.067V92.5343L96.3059 116.989Z" fill="#111111"/>
<path d="M128.426 116.989H129.426V115.989H128.426V116.989ZM128.426 122.245V123.245H129.426V122.245H128.426ZM121.126 122.245V121.245H120.126V122.245H121.126ZM121.126 135.239V136.239H122.126V135.239H121.126ZM115.067 135.239H114.067V136.239H115.067V135.239ZM115.067 122.245H116.067V121.245H115.067V122.245ZM89.7359 122.245H88.7359V123.245H89.7359V122.245ZM89.7359 116.989L88.9432 116.38L88.7359 116.649V116.989H89.7359ZM114.994 84.1393L115.701 83.4321L114.896 82.6266L114.201 83.5297L114.994 84.1393ZM115.067 84.2123L114.36 84.9194L116.067 86.6265V84.2123H115.067ZM115.067 84.1393V83.1393H114.067V84.1393H115.067ZM121.126 84.1393H122.126V83.1393H121.126V84.1393ZM121.126 116.989H120.126V117.989H121.126V116.989ZM96.3059 116.989L95.5125 116.381L94.2784 117.989H96.3059V116.989ZM115.067 116.989V117.989H116.067V116.989H115.067ZM115.067 92.5343H116.067V89.5879L114.273 91.9256L115.067 92.5343ZM127.426 116.989V122.245H129.426V116.989H127.426ZM128.426 121.245H121.126V123.245H128.426V121.245ZM120.126 122.245V135.239H122.126V122.245H120.126ZM121.126 134.239H115.067V136.239H121.126V134.239ZM116.067 135.239V122.245H114.067V135.239H116.067ZM115.067 121.245H89.7359V123.245H115.067V121.245ZM90.7359 122.245V116.989H88.7359V122.245H90.7359ZM90.5287 117.599L115.787 84.7488L114.201 83.5297L88.9432 116.38L90.5287 117.599ZM114.287 84.8464L114.36 84.9194L115.774 83.5051L115.701 83.4321L114.287 84.8464ZM116.067 84.2123V84.1393H114.067V84.2123H116.067ZM115.067 85.1393H121.126V83.1393H115.067V85.1393ZM120.126 84.1393V116.989H122.126V84.1393H120.126ZM121.126 117.989H128.426V115.989H121.126V117.989ZM96.3059 117.989H115.067V115.989H96.3059V117.989ZM116.067 116.989V92.5343H114.067V116.989H116.067ZM114.273 91.9256L95.5125 116.381L97.0993 117.598L115.86 93.1429L114.273 91.9256Z" fill="black" mask="url(#path-2-outside-1_52_286)"/>
</svg>
