<svg width="54" height="74" viewBox="0 0 54 74" fill="none" xmlns="http://www.w3.org/2000/svg">
<path fill-rule="evenodd" clip-rule="evenodd" d="M9.89474 1.2168H49.5947V8.9168H16.7947L13.3947 32.2168C13.7819 31.7805 14.1794 31.3644 14.5875 30.9683C18.6068 27.0673 23.6425 25.1168 29.6947 25.1168C36.4281 25.1168 41.9281 27.3168 46.1947 31.7168C50.4614 36.0501 52.5947 41.6501 52.5947 48.5168C52.5947 55.5168 50.2947 61.2501 45.6947 65.7168C41.1614 70.1168 35.2614 72.3168 27.9947 72.3168C20.7947 72.3168 14.7947 70.3168 9.99474 66.3168C5.50049 62.5188 2.8093 57.5188 1.92117 51.3168C1.87393 50.9869 1.83178 50.6535 1.79474 50.3168H10.4947C11.0281 54.6501 12.8614 58.1168 15.9947 60.7168C19.1947 63.3168 23.1947 64.6168 27.9947 64.6168C32.7281 64.6168 36.5614 63.1168 39.4947 60.1168C42.4947 57.1168 43.9947 53.2501 43.9947 48.5168C43.9947 43.7168 42.5281 39.8168 39.5947 36.8168C36.6614 33.8168 32.8614 32.3168 28.1947 32.3168C25.1281 32.3168 22.1947 32.9835 19.3947 34.3168C16.5947 35.5835 14.2947 37.2168 12.4947 39.2168H4.19474L9.89474 1.2168ZM16.6292 59.9438C19.6219 62.3738 23.3869 63.6168 27.9947 63.6168C32.4967 63.6168 36.0594 62.1999 38.7797 59.4177L38.7876 59.4096C41.5776 56.6197 42.9947 53.0185 42.9947 48.5168C42.9947 43.9374 41.6037 40.3018 38.8797 37.5159C36.1566 34.7308 32.6255 33.3168 28.1947 33.3168C25.2786 33.3168 22.4919 33.9495 19.8247 35.2197L19.8158 35.2239L19.8069 35.2279C17.115 36.4457 14.9333 38.0021 13.238 39.8858L12.9401 40.2168H3.03356L9.03356 0.216797H50.5947V9.9168H17.6594L14.8163 29.4005C18.8715 25.8766 23.8484 24.1168 29.6947 24.1168C36.6676 24.1168 42.4355 26.4052 46.9097 31.0176C51.3833 35.5624 53.5947 41.4257 53.5947 48.5168C53.5947 55.7597 51.2041 61.761 46.3914 66.4342C41.6432 71.0427 35.4793 73.3168 27.9947 73.3168C20.5984 73.3168 14.3612 71.2572 9.35456 67.085L9.34927 67.0806C4.40325 62.9008 1.55957 57.3246 0.800738 50.4261L0.678711 49.3168H11.3792L11.4873 50.1946C11.9917 54.2931 13.7096 57.5195 16.6292 59.9438Z" fill="#111111"/>
</svg>
