<svg width="56" height="75" viewBox="0 0 56 75" fill="none" xmlns="http://www.w3.org/2000/svg">
<path fill-rule="evenodd" clip-rule="evenodd" d="M46.0664 22.9167C45.5331 18.7834 43.7664 15.4167 40.7664 12.8167C37.8331 10.15 34.2331 8.8167 29.9664 8.8167C23.2331 8.8167 17.9997 11.45 14.2664 16.7167C10.5997 21.9167 8.76641 28.85 8.76641 37.5167C8.76641 37.8473 8.77611 38.2313 8.79551 38.6686C8.82697 39.3777 8.88394 40.2271 8.96641 41.2167C9.19513 40.4035 9.47472 39.6144 9.80516 38.8496C11.2084 35.6019 13.5288 32.7909 16.7664 30.4167C20.8331 27.4167 25.5664 25.9167 30.9664 25.9167C37.8331 25.9167 43.4331 28.1167 47.7664 32.5167C52.0997 36.85 54.2664 42.4834 54.2664 49.4167C54.2664 56.4834 51.9997 62.25 47.4664 66.7167C42.9997 71.1167 37.1997 73.3167 30.0664 73.3167C20.8664 73.3167 13.7331 70.05 8.66641 63.5167C3.59974 56.9167 1.06641 48.6167 1.06641 38.6167C1.06641 26.55 3.63307 17.2834 8.76641 10.8167C13.9664 4.35003 21.0331 1.1167 29.9664 1.1167C36.6331 1.1167 42.2664 3.15003 46.8664 7.2167C51.2269 11.0084 53.8202 15.9084 54.6463 21.9167C54.6917 22.2467 54.7317 22.58 54.7664 22.9167H46.0664ZM48.4764 31.8125C43.9336 27.2011 38.0667 24.9167 30.9664 24.9167C25.3688 24.9167 20.4244 26.4759 16.1739 29.6111C13.4095 31.6386 11.2691 33.9893 9.77253 36.6621C9.88975 28.5347 11.6898 22.1068 15.0827 17.2943C18.6192 12.3058 23.5411 9.8167 29.9664 9.8167C34.005 9.8167 37.3592 11.0707 40.0937 13.5566L40.1025 13.5646L40.1115 13.5724C42.9161 16.003 44.571 19.1416 45.0746 23.0447L45.1872 23.9167H55.8748L55.7611 22.8141C55.0705 16.1149 52.3288 10.6427 47.5257 6.46478C42.7272 2.22392 36.8529 0.116699 29.9664 0.116699C20.7568 0.116699 13.393 3.46735 7.98709 10.19L7.98318 10.195C2.65757 16.9038 0.0664062 26.425 0.0664062 38.6167C0.0664062 48.7911 2.64697 57.3178 7.87318 64.1256L7.87619 64.1295C13.1554 70.937 20.5972 74.3167 30.0664 74.3167C37.4231 74.3167 43.4882 72.0392 48.1682 67.4291C52.9142 62.7529 55.2664 56.7187 55.2664 49.4167C55.2664 42.2576 53.0206 36.3582 48.4764 31.8125ZM18.458 38.539C15.5437 41.3293 14.0664 44.9574 14.0664 49.5167C14.0664 54.0048 15.5407 57.6013 18.458 60.3944C21.3793 63.1914 25.1525 64.6167 29.8664 64.6167C34.2951 64.6167 37.8249 63.204 40.5475 60.4215C43.2792 57.5636 44.6664 53.9227 44.6664 49.4167C44.6664 44.8373 43.2754 41.2017 40.5514 38.4158C37.8282 35.6307 34.2972 34.2167 29.8664 34.2167C25.1589 34.2167 21.3883 35.6711 18.4659 38.5314L18.458 38.539ZM41.2664 61.1167C38.3331 64.1167 34.5331 65.6167 29.8664 65.6167C24.9331 65.6167 20.8997 64.1167 17.7664 61.1167C14.6331 58.1167 13.0664 54.25 13.0664 49.5167C13.0664 44.7167 14.6331 40.8167 17.7664 37.8167C20.8997 34.75 24.9331 33.2167 29.8664 33.2167C34.5331 33.2167 38.3331 34.7167 41.2664 37.7167C44.1997 40.7167 45.6664 44.6167 45.6664 49.4167C45.6664 54.15 44.1997 58.05 41.2664 61.1167Z" fill="#111111"/>
</svg>
