<svg width="84" height="244" viewBox="0 0 84 244" fill="none" xmlns="http://www.w3.org/2000/svg">
<path d="M30.4108 241.665C58.7254 241.665 81.6787 229.652 81.6787 214.834C81.6787 200.015 58.7254 188.002 30.4108 188.002C14.5426 188.002 1.67871 193.088 1.67871 199.36C1.67871 205.633 14.5426 210.719 30.4108 210.719C58.7254 210.719 81.6787 198.706 81.6787 183.887C81.6787 169.069 58.7254 157.056 30.4108 157.056C14.5426 157.056 1.67872 162.141 1.67872 168.414C1.67871 174.687 14.5426 179.772 30.4108 179.772C58.7254 179.772 81.6787 167.686 81.6787 152.776C81.6787 137.867 58.7254 125.78 30.4108 125.78C14.5426 125.78 1.67872 130.865 1.67872 137.138C1.67872 143.411 14.5426 148.496 30.4108 148.496C58.7254 148.496 81.6787 136.484 81.6787 121.665C81.6787 106.846 58.7254 94.8342 30.4108 94.8342C14.5426 94.8342 1.67872 99.9186 1.67872 106.192C1.67872 112.465 14.5426 117.55 30.4108 117.55C58.7254 117.55 81.6787 105.537 81.6787 90.7183C81.6787 75.8997 58.7254 63.8874 30.4108 63.8874C14.5426 63.8874 1.67872 68.9727 1.67872 75.2449C1.67872 81.5179 14.5426 86.6033 30.4108 86.6033C58.7254 86.6033 81.6787 74.5901 81.6787 59.7724C81.6787 44.9538 58.7255 32.9406 30.4108 32.9406C14.5426 32.9406 1.67873 38.026 1.67873 44.299C1.67873 50.5712 14.5426 55.6565 30.4108 55.6565C58.7254 55.6565 81.6787 43.5705 81.6787 28.6613C81.6787 13.752 58.7255 1.66503 30.4108 1.66503" fill="white"/>
<path d="M30.4108 241.665C58.7254 241.665 81.6787 229.652 81.6787 214.834C81.6787 200.015 58.7254 188.002 30.4108 188.002C14.5426 188.002 1.67871 193.088 1.67871 199.36C1.67871 205.633 14.5426 210.719 30.4108 210.719C58.7254 210.719 81.6787 198.706 81.6787 183.887C81.6787 169.069 58.7254 157.056 30.4108 157.056C14.5426 157.056 1.67872 162.141 1.67872 168.414C1.67871 174.687 14.5426 179.772 30.4108 179.772C58.7254 179.772 81.6787 167.686 81.6787 152.776C81.6787 137.867 58.7254 125.78 30.4108 125.78C14.5426 125.78 1.67872 130.865 1.67872 137.138C1.67872 143.411 14.5426 148.496 30.4108 148.496C58.7254 148.496 81.6787 136.484 81.6787 121.665C81.6787 106.846 58.7254 94.8342 30.4108 94.8342C14.5426 94.8342 1.67872 99.9186 1.67872 106.192C1.67872 112.465 14.5426 117.55 30.4108 117.55C58.7254 117.55 81.6787 105.537 81.6787 90.7183C81.6787 75.8997 58.7254 63.8874 30.4108 63.8874C14.5426 63.8874 1.67872 68.9727 1.67872 75.2449C1.67872 81.5179 14.5426 86.6033 30.4108 86.6033C58.7254 86.6033 81.6787 74.5901 81.6787 59.7724C81.6787 44.9538 58.7255 32.9406 30.4108 32.9406C14.5426 32.9406 1.67873 38.026 1.67873 44.299C1.67873 50.5712 14.5426 55.6565 30.4108 55.6565C58.7254 55.6565 81.6787 43.5705 81.6787 28.6613C81.6787 13.752 58.7255 1.66503 30.4108 1.66503" stroke="#111111" stroke-width="3" stroke-linecap="square"/>
</svg>
