<svg width="106" height="105" viewBox="0 0 106 105" fill="none" xmlns="http://www.w3.org/2000/svg">
<path d="M66.9014 74.1995L66.7557 74.2615L66.6723 74.3961L49.0203 102.883L51.3934 73.7446L51.4598 72.9296L50.7041 73.2419L17.0546 87.1467L40.7515 65.1554L41.7432 64.2351L40.3914 64.2893L3.79238 65.7564L32.3269 55.0678L33.1761 54.7498L32.4539 54.2014L2.61102 31.5421L35.2467 36.9436L35.8284 37.0399V36.4504V3.6149L47.8841 36.6219L48.2454 37.611L48.7835 36.7059L66.0742 7.62674L59.9349 39.8592L59.6303 41.4582L60.78 40.3059L85.0569 15.9742L66.6719 45.7398L65.8785 47.0242L67.2818 46.4673L96.1525 35.0076L66.7888 58.0269L65.6491 58.9204H67.0973H102.771L66.9014 74.1995Z" fill="white" stroke="#111111"/>
<circle cx="43.1045" cy="47.292" r="1.65527" fill="#111111"/>
<circle cx="52.96" cy="47.292" r="1.65527" fill="#111111"/>
<path d="M48.283 52.8494L48.2829 53.3494H48.283L57.5747 53.3495C57.3149 58.2564 53.2539 62.1552 48.2822 62.1552C43.3104 62.1552 39.2492 58.2561 38.9897 53.3489L40.0089 53.3486C40.9282 53.3485 42.154 53.3486 43.3798 53.3487L46.7507 53.3491L47.8616 53.3493L48.1728 53.3493L48.2548 53.3494L48.2758 53.3494L48.2812 53.3494L48.2825 53.3494L48.2828 53.3494C48.2829 53.3494 48.2829 53.3494 48.283 52.8494Z" stroke="#111111"/>
</svg>
